# xmcd
#
# Track frame offsets:
#	150
#	15404
#	36179
#	51382
#	69734
#	83285
#	96538
#	106115
#	125214
#	138617
#	154584
#	169636
#	189413
#	202140
#	220792
#	236220
#	258398
#	269551
#	287377
#	304079
#
# Disc length: 4191 seconds
#
# Revision: 1
# Processed by: cddbd v1.5.1PL2 Copyright (c) Steve Scherf et al.
# Submitted via: EasyCDDAExtractor 5.0.6
#
DISCID=25105d14
DTITLE=Various Artist - Beach Classics III and IV
DYEAR=1997
DGENRE=Other
TTITLE0=Chairmen of the Board - On the Beach
TTITLE1=Poor Souls - Gigolo
TTITLE2=Band of Oz - Hot Fun in the Summer Time
TTITLE3=The Tams featuring Joe Pope - Down and Dirty Love
TTITLE4=Poor Souls - Walk the Chalkline
TTITLE5=Chairmen of the Board - Down at the Beach Club
TTITLE6=The Showmen featuring General Johnson - I Love You Can't You See
TTITLE7=Cornelius Bros. and Sister Rose - Sooner or Later
TTITLE8=Poor Souls - Your Cash Ain't Nothing But Trash
TTITLE9=Chairmen of the Board - I Wanna Doop, Doop, Doop Your Doo Wop She Doo 
TTITLE9=Wop
TTITLE10=The Showmen - Shaggin the Night Away
TTITLE11=Chairmen of the Board - Gone Fishin'
TTITLE12=Band of Oz - Lipstick Traces
TTITLE13=The Tams featuring Joe Pope - If This Ain't Love
TTITLE14=Chairmen of the Board - You Don't Know What Love Is
TTITLE15=Cornelius Bros. and Sister Rose - Let's Catch Up on Some Lovin'
TTITLE16=Poor Souls - White Cliffs of Dover
TTITLE17=Chairmen of the Board - Don't Walk Away
TTITLE18=The Showmen - Can I Have a Second Helpin' Please
TTITLE19=Poor Souls - Over The Rainbow
EXTD=Surfside Records, Inc.\n1409 East Boulevard, Suite 231\nCharlotte, NC 282
EXTD=05\n\nTelephone: (704) 372-9918 Fax: (704) 372-2754\n\nSR 1014\n14423CD\n
EXTD=ISBN: 7 9864-71014-2 5\n\n\nNON-RIAA  ;-]\n
EXTT0=
EXTT1=
EXTT2=
EXTT3=
EXTT4=
EXTT5=
EXTT6=
EXTT7=
EXTT8=
EXTT9=
EXTT10=
EXTT11=
EXTT12=
EXTT13=
EXTT14=
EXTT15=
EXTT16=
EXTT17=
EXTT18=
EXTT19=
PLAYORDER=
